<?xml version="1.0" standalone="no"?>
<svg version="1.0" xmlns="http://www.w3.org/2000/svg"
 width="1252.000000pt" height="146.001243pt" viewBox="0 0 1252.000000 146.001243"
 preserveAspectRatio="xMidYMid meet">
<g transform="translate(0.000000,146.001243) scale(0.100000,-0.100000)"
fill="#000000" stroke="none">
<path d="M10538 1383 c4 -36 -7 -45 -153
-122 -44 -24 -89 -50 -99 -59 -22 -20 -19 -13 28 58 48 72 108 130 151 145 55
20 69 16 73 -22z m-452 -24 c17 -10 42 -39 55 -64 13 -25 27 -45 31 -45 3 0
11 -14 17 -32 l11 -32 -25 24 c-23 22 -26 22 -43 7 -29 -26 -49 -21 -97 28
-40 39 -45 50 -45 88 0 24 3 47 6 50 10 9 54 -3 90 -24z m-2003 -14 c80 -21
152 -65 198 -120 21 -26 39 -48 39 -49 0 -1 5 -28 10 -59 13 -66 2 -93 -52
-142 l-33 -30 26 30 c37 42 49 68 49 107 0 54 -16 95 -56 144 -56 68 -156 112
-289 128 -23 2 -21 3 10 5 23 0 67 -6 98 -14z m-198 -9 c-54 -13 -109 -39
-138 -64 -9 -8 -19 -13 -22 -10 -8 7 70 57 114 73 20 8 50 14 66 13 23 0 18
-3 -20 -12z m-1731 -86 c44 -49 40 -61 -40 -123 l-54 -42 0 -73 c0 -79 9 -106
48 -137 14 -11 33 -26 41 -32 9 -7 -3 -5 -27 6 -68 29 -90 79 -91 214 -1 60 3
126 9 147 9 34 49 80 70 80 4 0 24 -18 44 -40z m-1559 20 c-3 -5 -13 -10 -21
-10 -8 0 -42 -15 -76 -32 -67 -37 -131 -106 -146 -158 -9 -31 -10 -32 -11 -9
-2 67 133 189 234 212 11 3 21 5 23 6 2 0 0 -3 -3 -9z m83 3 c-10 -2 -26 -2
-35 0 -10 3 -2 5 17 5 19 0 27 -2 18 -5z m-2677 -31 c57 -36 105 -98 131 -165
11 -29 19 -53 19 -54 -6 -17 3 -33 22 -38 36 -11 65 -44 60 -66 -8 -29 -46
-51 -76 -44 -20 5 -27 2 -32 -14 -3 -11 -27 -43 -53 -70 -37 -40 -55 -51 -79
-51 -52 0 -173 74 -173 106 0 7 11 26 24 41 l24 28 24 -21 c38 -35 88 -56 139
-58 38 -1 53 4 73 23 18 17 23 28 16 35 -16 16 -12 41 10 69 l20 25 -30 25
c-16 14 -81 50 -144 81 -87 41 -118 62 -129 83 -42 82 60 124 154 65z m299 8
c14 -14 20 -33 20 -63 0 -38 -6 -50 -47 -93 -27 -27 -53 -58 -60 -69 -10 -19
-12 -17 -27 18 -41 95 -26 180 37 211 42 20 53 20 77 -4z m2465 5 c17 -7 23
-14 15 -14 -8 0 -28 6 -45 14 -16 7 -23 14 -15 14 8 0 29 -6 45 -14z m1590
-57 c51 -58 56 -66 52 -100 -6 -45 -68 -124 -131 -167 -47 -33 -70 -29 -105
16 -31 40 -75 110 -60 96 10 -10 17 -2 34 35 24 49 129 182 144 182 5 0 35
-28 66 -62z m4251 17 c45 -34 100 -104 119 -150 9 -21 19 -69 22 -106 l6 -69
-37 0 c-56 0 -81 31 -97 121 -22 125 -55 183 -109 192 -19 3 -49 9 -67 13 -24
5 -45 -1 -93 -27 -33 -17 -59 -37 -57 -43 6 -18 50 -36 90 -36 44 0 97 -43 97
-79 0 -12 5 -21 11 -21 14 0 2 57 -18 88 -19 30 -79 55 -115 48 -42 -8 -34 10
13 28 51 21 84 15 139 -25 43 -31 70 -79 70 -124 0 -22 -9 -30 -56 -51 -72
-32 -105 -26 -143 27 -16 21 -34 52 -41 69 -7 16 -16 30 -21 30 -13 0 19 -81
49 -125 26 -37 31 -40 101 -51 57 -8 78 -16 93 -33 22 -28 22 -38 2 -86 -13
-33 -18 -36 -42 -30 -15 3 -44 18 -65 33 -66 45 -103 97 -133 188 -15 46 -30
84 -34 84 -4 0 -15 -9 -26 -21 -10 -11 -26 -18 -36 -16 -37 10 -15 -23 45 -67
44 -32 66 -70 83 -146 11 -47 11 -58 -2 -77 -33 -51 -103 -17 -155 73 l-32 56
13 84 c11 72 11 87 -3 115 -14 30 -14 34 6 61 18 25 27 28 56 24 24 -3 43 1
61 14 44 31 114 63 150 70 51 9 118 -6 156 -35z m-628 3 c-3 -31 -6 -33 -43
-35 -81 -5 -182 -26 -250 -54 -107 -42 -142 -46 -65 -6 36 19 96 50 133 70 38
21 83 37 100 38 18 1 43 5 57 9 14 4 35 8 48 9 20 1 23 -3 20 -31z m-3333 -23
c14 -13 25 -28 25 -34 0 -19 -39 -97 -66 -133 -34 -43 -193 -193 -199 -186 -2
2 18 28 45 58 48 55 48 55 55 145 8 99 15 119 54 152 34 29 56 29 86 -2z
m2399 -16 c36 -28 35 -72 -3 -110 -36 -36 -51 -36 -90 -3 -47 39 -40 93 14
122 30 17 49 14 79 -9z m195 -3 c26 -27 23 -52 -9 -81 -17 -16 -24 -16 -44 -6
-13 7 -30 24 -37 38 -12 23 -11 27 14 49 35 30 48 30 76 0z m-1419 -6 c11 -11
20 -28 20 -37 0 -20 -38 -63 -56 -63 -7 0 -17 -8 -22 -17 -9 -15 -15 -15 -50
-5 -79 24 -110 17 -162 -36 -58 -57 -80 -119 -56 -154 13 -18 13 -25 1 -48 -8
-15 -28 -32 -44 -38 -51 -18 -61 6 -67 153 -3 70 -1 132 4 138 5 7 15 33 22
60 13 49 31 59 62 35 45 -37 62 -99 32 -116 -9 -5 -29 -40 -45 -78 -29 -69
-35 -94 -21 -94 17 1 30 18 46 65 13 40 36 70 119 152 100 101 103 102 150
103 34 0 52 -5 67 -20z m-5169 -24 c144 -25 274 -59 283 -75 3 -5 -13 -2 -37
7 -28 10 -86 16 -172 18 -109 2 -139 -1 -189 -18 -99 -34 -166 -25 -166 22 0
10 14 30 31 44 39 33 64 33 250 2z m6213 5 c23 -25 13 -59 -19 -67 -28 -7 -41
-1 -55 26 -8 15 -6 24 10 40 25 25 42 25 64 1z m505 0 c21 -13 6 -41 -18 -34
-21 5 -27 23 -14 36 8 9 15 9 32 -2z m752 -7 c38 -19 34 -25 -9 -16 -67 14
-282 -6 -397 -37 -60 -16 -111 -28 -113 -26 -11 10 210 67 303 79 149 19 181
19 216 0z m-1885 -31 c19 -20 36 -45 40 -55 7 -24 -15 -59 -49 -77 -23 -12
-28 -11 -61 14 -26 20 -36 23 -36 13 0 -23 36 -50 78 -58 l37 -8 -36 -1 c-23
-1 -46 7 -64 21 -25 20 -27 25 -23 81 4 50 9 64 32 84 15 12 32 23 38 23 6 0
25 -17 44 -37z m479 11 c0 -13 -6 -18 -20 -16 -28 5 -30 9 -15 27 16 20 35 14
35 -11z m-3563 2 c41 -31 52 -147 23 -243 -10 -35 -21 -63 -24 -62 -3 0 -32
36 -64 80 -74 100 -98 114 -193 106 -86 -8 -104 5 -104 71 l0 42 63 0 c90 0
146 -42 225 -170 55 -91 51 -85 58 -78 3 3 -11 38 -30 77 -37 72 -44 119 -26
165 11 29 43 34 72 12z m1306 -84 c-3 -83 -5 -92 -43 -150 -42 -64 -55 -74
-55 -44 0 19 20 53 54 90 12 13 21 36 22 50 2 116 5 142 15 142 7 0 10 -29 7
-88z m2150 77 c-2 -6 -8 -10 -13 -10 -5 0 -11 4 -13 10 -2 6 4 11 13 11 9 0
15 -5 13 -11z m-4851 -14 c11 -8 26 -28 32 -45 9 -27 7 -34 -20 -65 -37 -42
-57 -44 -98 -9 -39 33 -41 74 -6 109 27 28 61 32 92 10z m4773 5 c0 -5 -7 -10
-15 -10 -8 0 -15 5 -15 10 0 6 7 10 15 10 8 0 15 -4 15 -10z m-4996 -21 c39
-30 35 -66 -9 -85 -76 -31 -126 52 -54 92 32 17 32 17 63 -7z m7356 -9 c-22
-17 -23 -20 -6 -20 27 0 56 -29 56 -54 0 -31 -28 -66 -52 -66 -32 0 -68 39
-68 72 0 21 10 35 42 58 45 33 68 41 28 10z m-1007 -1 c20 -5 37 -16 37 -23 0
-29 -69 -35 -127 -11 -19 8 -47 16 -62 16 -18 1 -11 5 24 14 64 17 82 17 128
4z m1107 -35 c43 -49 50 -72 40 -135 l-8 -54 -1 66 c-1 62 -3 69 -42 113 -22
25 -36 46 -31 46 6 0 24 -16 42 -36z m384 17 c13 -14 16 -28 10 -56 -9 -50
-42 -86 -111 -123 -33 -17 -85 -47 -118 -66 -32 -20 -66 -36 -74 -36 -9 0 0 9
19 21 62 37 109 91 131 149 21 58 82 130 109 130 10 0 25 -9 34 -19z m197 -3
c11 -17 2 -46 -27 -85 -16 -21 -54 -47 -108 -72 -108 -51 -119 -66 -40 -56 74
9 161 49 182 84 26 43 66 86 95 106 25 16 29 16 52 1 44 -29 28 -90 -35 -129
-19 -12 -214 -67 -237 -67 -3 0 2 -7 11 -15 8 -8 27 -15 43 -15 15 0 64 -16
107 -35 47 -20 84 -31 90 -26 6 5 44 11 84 14 56 5 85 13 128 37 50 29 58 31
85 19 33 -13 49 -42 41 -72 -13 -48 -126 -64 -237 -33 -33 10 -71 20 -85 22
-25 5 -25 5 5 -21 102 -87 228 -103 350 -44 58 28 72 31 103 23 33 -8 37 -13
40 -45 12 -138 -252 -120 -475 32 -64 44 -204 109 -234 109 -15 0 -40 7 -55
15 -44 23 -176 20 -242 -5 -29 -11 -58 -20 -65 -19 -18 0 125 58 146 58 10 1
32 15 49 31 30 30 78 111 78 132 0 6 17 26 38 45 31 28 43 32 71 28 19 -2 38
-10 42 -17z m-9560 -15 c36 -19 60 -40 73 -63 l19 -35 -41 39 c-37 35 -44 38
-78 31 -54 -10 -91 -31 -152 -86 -30 -27 -62 -49 -73 -49 -11 0 -36 15 -55 33
-29 26 -35 38 -30 55 11 32 63 65 136 84 94 24 138 22 201 -9z m1199 12 c10
-12 10 -18 0 -30 -7 -8 -18 -15 -25 -15 -7 0 -18 7 -25 15 -10 12 -10 18 0 30
7 8 18 15 25 15 7 0 18 -7 25 -15z m159 3 c17 -11 18 -14 4 -35 -19 -29 -44
-29 -62 -1 -12 19 -11 23 5 35 22 16 29 16 53 1z m579 -8 c38 -23 37 -35 0
-63 -31 -23 -67 -18 -86 13 -11 18 -9 24 12 45 30 30 32 30 74 5z m4046 1 c33
-36 37 -88 12 -145 -34 -75 -69 -111 -144 -147 -58 -27 -78 -31 -157 -33 -76
-1 -97 3 -132 21 -62 34 -60 42 5 20 34 -12 84 -21 124 -21 66 -1 68 0 113 44
54 52 61 67 70 147 6 48 13 64 43 96 20 20 39 37 42 37 4 0 15 -9 24 -19z
m2186 1 c0 -13 -20 -34 -92 -101 -80 -73 -104 -77 -154 -27 -39 39 -43 72 -13
105 19 20 28 22 88 17 95 -8 134 -7 145 4 12 12 26 13 26 2z m-9073 -57 c29
-30 74 -66 100 -81 l48 -26 -60 5 c-73 7 -155 31 -185 55 -13 11 -23 33 -27
60 l-6 42 39 0 c33 0 45 -7 91 -55z m1978 45 c3 -5 -3 -10 -15 -10 -12 0 -18
5 -15 10 3 6 10 10 15 10 5 0 12 -4 15 -10z m-425 -10 c-156 -7 -195 -15 -349
-71 -30 -11 -56 -17 -58 -15 -11 10 140 71 222 89 11 3 92 4 180 4 l160 0
-155 -7z m1415 -10 c17 -19 17 -20 -10 -32 -24 -11 -29 -10 -41 7 -22 29 -18
35 27 44 3 0 14 -8 24 -19z m423 9 c59 -20 66 -107 11 -138 -52 -29 -110 14
-95 72 5 20 42 77 50 77 2 0 17 -5 34 -11z m208 -4 c12 -3 28 -20 39 -44 16
-36 16 -46 5 -86 -12 -45 -12 -48 16 -88 21 -29 50 -52 97 -76 37 -19 65 -36
62 -39 -4 -5 -135 33 -172 51 -41 18 -94 69 -114 108 -15 31 -19 55 -17 112
l3 73 30 -4 c17 -2 39 -5 51 -7z m1244 1 c15 -8 42 -47 66 -93 29 -56 51 -85
78 -103 61 -40 24 -34 -65 9 -46 23 -87 41 -91 41 -5 0 -29 10 -54 22 -31 14
-51 31 -59 52 -16 37 -10 52 24 71 33 18 69 18 101 1z m-5055 -25 c11 -9 44
-38 73 -64 29 -27 67 -55 85 -63 31 -14 29 -14 -38 -8 -92 7 -161 32 -191 67
-58 69 1 126 71 68z m3455 7 c0 -6 13 -32 30 -59 16 -26 23 -46 16 -43 -7 3
-25 29 -40 57 -28 56 -32 72 -16 62 6 -3 10 -11 10 -17z m3430 -13 c59 -30 71
-59 47 -111 -21 -44 -65 -56 -185 -52 l-93 3 42 33 c46 34 73 39 126 20 40
-15 52 -5 27 23 -28 31 -68 49 -111 49 -30 0 -46 -8 -82 -42 -35 -35 -40 -37
-23 -13 24 35 78 88 107 103 34 19 93 13 145 -13z m-5068 5 c-57 -6 -77 -13
-88 -28 -17 -25 -60 -35 -109 -26 -43 8 -41 23 6 46 27 14 57 18 149 17 114
-2 114 -2 42 -9z m6678 -5 c248 -31 493 -112 800 -265 183 -91 297 -132 413
-151 110 -17 87 -24 -35 -10 -123 15 -301 67 -412 123 -183 90 -389 171 -540
212 -287 78 -796 53 -1118 -54 -141 -47 -212 -77 -333 -140 -194 -101 -460
-274 -460 -300 0 -3 -29 -33 -64 -66 -35 -32 -59 -49 -53 -38 6 12 28 36 49
55 21 18 36 35 35 37 -14 15 159 157 310 256 301 196 565 291 933 335 189 23
328 25 475 6z m-5200 -5 c0 -5 -7 -10 -15 -10 -8 0 -15 5 -15 10 0 6 7 10 15
10 8 0 15 -4 15 -10z m755 -8 c23 -16 92 -109 102 -137 14 -36 24 -95 18 -95
-3 0 -23 12 -45 26 -31 21 -45 39 -61 85 -12 33 -25 59 -29 59 -11 0 -20 -27
-20 -59 0 -38 75 -110 123 -118 36 -5 52 -23 22 -23 -25 0 -122 28 -154 45
-45 23 -111 91 -111 115 0 26 65 98 93 103 37 7 52 7 62 -1z m1222 -89 c32
-47 55 -67 52 -45 -6 36 22 42 71 17 23 -12 30 -22 30 -45 0 -28 -3 -30 -36
-30 -19 0 -44 4 -54 10 -27 15 -120 150 -119 174 0 19 1 18 10 -4 6 -14 26
-49 46 -77z m-5429 49 c13 -2 29 -13 35 -24 19 -32 124 -80 174 -80 25 0 42
-2 39 -6 -15 -14 -231 -22 -276 -10 -37 11 -80 55 -80 83 0 27 45 58 70 48 8
-3 25 -8 38 -11z m2982 7 c288 -36 643 -171 860 -327 41 -30 86 -58 99 -63 28
-11 243 -171 237 -176 -2 -2 -50 26 -107 63 -57 36 -117 74 -132 83 -16 9 -74
44 -129 79 -56 34 -105 62 -108 62 -4 0 -59 24 -121 54 -294 138 -612 205
-924 193 -138 -5 -348 -38 -372 -59 -7 -5 -36 -16 -65 -23 -29 -8 -80 -23
-113 -34 -33 -11 -73 -23 -90 -27 -27 -6 -28 -7 -10 -14 18 -8 17 -9 -6 -9
-14 -1 -66 -21 -115 -45 -100 -49 -210 -100 -236 -109 -10 -4 -18 -11 -18 -17
0 -6 -4 -8 -10 -5 -5 3 -31 -4 -57 -15 -56 -26 -185 -71 -189 -67 -7 7 628
319 703 347 46 16 124 40 175 54 86 22 138 32 288 55 78 12 340 12 440 0z
m-1702 -21 c34 -13 62 -26 62 -30 0 -5 -31 -8 -69 -8 -69 0 -131 15 -131 31 0
7 39 23 70 28 3 1 33 -9 68 -21z m9886 9 c17 -12 17 -18 6 -51 -13 -41 -63
-80 -118 -91 -35 -7 -227 4 -204 12 6 3 12 11 12 18 0 9 11 14 28 14 50 -1 92
16 130 53 58 56 110 72 146 45z m-4671 -18 c22 -12 40 -30 92 -87 21 -23 24
-31 12 -26 -10 4 -43 1 -72 -6 -61 -15 -96 -9 -125 22 -55 60 18 136 93 97z
m-1775 -25 c16 -11 22 -25 22 -54 0 -34 -4 -42 -30 -55 -42 -22 -73 -19 -100
10 -16 17 -28 22 -39 16 -9 -4 -31 -11 -48 -14 -46 -9 -43 13 6 52 74 59 145
76 189 45z m3562 -36 c133 -40 188 -81 204 -151 9 -36 -30 -77 -73 -77 -39 0
-97 50 -106 92 -15 68 -141 158 -222 158 -13 0 -22 4 -18 9 9 15 113 0 215
-31z m-7490 0 c42 -31 55 -69 36 -105 -34 -66 -88 -72 -120 -12 -17 31 -18 40
-7 67 7 16 21 32 32 35 20 5 27 27 8 27 -6 0 -19 -5 -30 -11 -19 -10 -20 -9
-9 11 14 26 45 22 90 -12z m768 16 c16 -11 34 -13 65 -9 77 12 157 -44 157
-111 0 -50 -105 -60 -166 -16 -52 38 -62 51 -78 106 -15 50 -12 54 22 30z
m7135 -36 c73 -64 96 -111 97 -196 0 -73 -14 -106 -64 -150 -84 -74 -213 -61
-276 28 -37 52 -30 60 61 60 54 0 92 5 115 16 44 21 94 93 101 144 5 34 1 43
-28 72 -19 19 -47 44 -63 56 -16 12 -23 22 -16 22 7 0 39 -24 73 -52z m-8134
38 c-2 -2 -53 -13 -112 -25 -168 -34 -247 -63 -344 -126 -48 -32 -122 -92
-164 -134 -148 -150 -229 -201 -319 -201 -99 0 -151 52 -110 110 27 38 59 46
122 31 27 -6 86 -11 130 -11 l81 0 75 75 c82 82 238 191 317 220 70 27 343 78
324 61z m117 -9 c-11 -7 -37 -28 -59 -47 -22 -19 -38 -28 -35 -20 4 14 93 81
107 79 3 0 -3 -6 -13 -12z m1894 8 c0 -2 -19 -13 -42 -23 -145 -64 -188 -194
-94 -288 54 -53 137 -74 204 -51 24 8 42 10 42 5 0 -19 -61 -94 -90 -111 -16
-10 -51 -20 -77 -23 -41 -5 -54 -1 -95 24 -64 42 -104 111 -101 177 4 104 51
184 142 242 66 43 111 62 111 48z m6318 -11 c13 -9 61 -31 108 -49 69 -27 96
-44 138 -88 86 -88 103 -144 66 -217 -41 -80 -127 -110 -199 -69 -23 12 -41
26 -41 31 0 4 16 -4 36 -17 59 -40 127 -28 173 31 76 97 -4 234 -186 319 -92
43 -146 75 -127 75 5 0 20 -7 32 -16z m-7425 -29 c-9 -19 -18 -33 -21 -31 -4
5 26 66 33 66 3 0 -3 -16 -12 -35z m1582 26 l40 -9 -36 -1 c-105 -3 -201 -63
-240 -150 -39 -90 -104 -130 -154 -97 -31 20 -33 67 -6 113 25 40 142 109 218
127 114 28 119 29 178 17z m5009 -61 c134 -46 182 -69 214 -102 45 -49 46
-119 2 -133 -50 -16 -94 15 -135 95 -39 76 -75 109 -150 141 -38 16 -79 29
-90 29 -11 0 -27 5 -35 11 -30 21 79 -2 194 -41z m2215 16 c-30 -51 -99 -111
-168 -145 -33 -17 -66 -31 -73 -31 -21 0 4 17 44 30 56 17 153 93 179 139 12
23 26 41 31 41 4 0 -2 -15 -13 -34z m-1489 8 c0 -12 7 -15 25 -12 31 6 33 -7
3 -23 -18 -10 -24 -8 -39 12 -23 29 -24 39 -4 39 8 0 15 -7 15 -16z m-8884
-19 c25 -14 51 -24 57 -23 7 2 26 -2 42 -9 17 -6 44 -14 60 -18 27 -7 23 -9
-50 -31 -44 -13 -99 -24 -121 -24 -50 0 -109 23 -118 45 -29 77 42 109 130 60z
m5988 -4 c32 -34 29 -62 -10 -87 -34 -23 -84 -11 -134 31 -25 21 -58 38 -81
41 -57 9 -58 24 -2 25 26 1 62 5 78 9 17 4 51 8 76 9 38 1 50 -4 73 -28z
m-2654 9 c12 -8 11 -10 -7 -10 -12 0 -48 -7 -80 -15 -72 -19 -138 -80 -181
-169 -36 -73 -51 -87 -93 -89 -23 -2 -36 5 -52 25 -18 24 -18 30 -7 58 28 67
134 136 285 185 77 26 112 30 135 15z m-2158 -25 c6 -14 31 -41 56 -60 72 -56
127 -46 221 40 51 46 43 26 -12 -34 -98 -106 -226 -108 -329 -7 -43 41 -46 53
-20 72 29 23 71 17 84 -11z m1247 21 c-2 -2 -40 -16 -84 -31 -183 -62 -294
-166 -303 -285 -5 -67 6 -93 51 -120 42 -26 97 -26 130 0 42 33 68 83 61 117
l-6 30 -24 -23 c-12 -13 -33 -24 -44 -24 -25 0 -80 51 -80 74 0 54 65 100 109
77 43 -24 61 -61 61 -127 0 -61 -2 -65 -43 -109 -53 -55 -107 -63 -170 -27
-131 77 -61 279 131 381 70 36 234 89 211 67z m2155 -21 c28 -26 32 -45 16
-76 -23 -42 -110 -5 -110 47 0 22 33 54 56 54 6 0 23 -11 38 -25z m-3978 -20
c-9 -13 -22 -68 -31 -122 -11 -77 -19 -102 -36 -115 -31 -26 -54 -22 -84 14
-22 26 -26 38 -21 67 8 53 55 112 116 149 65 38 78 40 56 7z m1874 15 c0 -5
-7 -10 -15 -10 -8 0 -15 5 -15 10 0 6 7 10 15 10 8 0 15 -4 15 -10z m5474 -20
c152 -38 157 -40 151 -51 -3 -5 0 -6 8 -4 35 14 106 -79 87 -114 -25 -48 -77
-33 -130 36 -58 77 -91 102 -172 129 -70 23 -93 34 -70 34 4 0 61 -13 126 -30z
m764 17 c8 -9 8 -25 0 -55 -9 -38 -14 -43 -36 -40 -16 2 -32 14 -43 33 -17 29
-25 54 -13 42 3 -3 20 3 37 14 38 22 41 23 55 6z m-8291 -46 l-35 -39 4 -113
c4 -122 -5 -164 -38 -174 -10 -4 -30 0 -43 9 -54 35 -45 118 23 219 26 39 55
82 64 96 20 29 49 53 56 46 3 -2 -11 -22 -31 -44z m255 -8 c-4 -53 -1 -63 30
-108 25 -38 50 -59 103 -88 39 -21 59 -35 45 -31 -103 28 -190 125 -190 213 0
34 7 71 14 71 1 0 0 -26 -2 -57z m2835 39 c7 -4 -15 -13 -53 -20 -93 -18 -117
-33 -179 -115 -61 -82 -91 -103 -130 -93 -77 19 -17 135 93 177 31 12 98 30
147 39 109 22 107 22 122 12z m1420 -8 c55 -18 89 -47 146 -124 23 -30 81 -93
130 -140 49 -47 93 -94 99 -105 6 -11 -15 5 -46 35 -31 30 -64 55 -74 55 -9 0
-17 7 -17 17 0 9 -8 25 -18 36 -26 28 -144 89 -189 97 -38 7 -88 47 -88 70 0
7 -3 27 -6 44 -8 36 -3 37 63 15z m1971 -13 c51 -40 106 -54 172 -41 119 23
180 5 180 -50 0 -47 -37 -65 -99 -50 -28 6 -74 26 -103 44 -29 17 -78 44 -109
59 -31 15 -64 36 -74 47 -26 29 -9 24 33 -9z m-4494 13 c9 -3 16 -12 16 -20 0
-17 -26 -8 -34 12 -6 16 -4 17 18 8z m3306 -14 c40 -28 45 -52 20 -99 -11 -22
-20 -46 -20 -53 1 -7 8 3 16 22 24 56 53 80 93 80 42 0 54 -7 70 -37 18 -35
13 -72 -14 -97 -29 -27 -33 -41 -8 -32 42 17 103 -31 103 -80 0 -20 -60 -74
-82 -74 -26 0 -82 36 -68 45 8 5 8 10 0 20 -9 10 -6 14 12 18 17 3 15 5 -9 6
-38 1 -39 3 -16 38 l18 26 -27 -17 c-24 -15 -25 -20 -16 -47 5 -16 14 -29 19
-29 4 0 6 -6 3 -13 -2 -7 15 -26 40 -44 35 -25 46 -40 52 -69 4 -21 2 -44 -3
-53 -17 -27 -57 -45 -86 -37 -29 7 -107 104 -107 133 0 13 3 14 12 5 18 -18
28 -15 21 5 -7 17 -5 17 21 -1 16 -10 25 -13 22 -7 -4 6 -3 11 2 11 6 0 9 11
8 25 0 14 -4 25 -7 25 -4 0 -9 19 -12 43 -5 36 -2 46 20 70 15 15 22 27 16 27
-5 0 -18 -9 -28 -20 -19 -21 -43 -17 -25 5 8 9 5 11 -15 7 -19 -3 -25 0 -25
13 0 14 -3 15 -14 6 -11 -9 -15 -7 -21 11 l-8 23 -5 -25 c-4 -24 -5 -24 -18
10 -11 31 -13 32 -14 10 -1 -20 -6 -13 -25 30 -30 69 -30 72 1 109 30 37 63
40 104 11z m764 -7 c-13 -55 -36 -78 -124 -121 -53 -25 -120 -71 -173 -115
-122 -103 -165 -137 -172 -137 -8 0 72 70 188 164 53 44 97 86 97 93 0 23 81
103 124 122 58 27 68 26 60 -6z m265 -8 c-12 -19 -27 -35 -35 -35 -21 0 -17
10 13 42 37 38 47 35 22 -7z m2031 -21 c0 -56 -14 -57 -28 -2 -8 31 -8 44 1
50 19 12 27 -2 27 -48z m185 31 c0 -30 -39 -27 -43 3 -3 20 0 23 20 20 15 -2
23 -10 23 -23z m1790 -11 c28 -13 64 -36 82 -53 17 -16 35 -26 38 -22 4 3 5 1
3 -5 -2 -6 22 -36 53 -65 41 -40 58 -64 63 -92 10 -55 0 -92 -31 -106 -31 -14
-70 6 -78 42 -49 224 -56 238 -155 295 -77 45 -64 48 25 6z m-10402 -9 c-54
-36 -93 -79 -93 -102 0 -7 -7 -25 -16 -38 -10 -15 -13 -32 -9 -46 11 -34 14
-151 4 -175 -10 -29 -44 -47 -69 -39 -30 9 -53 61 -46 101 11 54 44 121 86
169 21 24 41 54 45 65 7 22 111 99 135 99 8 1 -8 -15 -37 -34z m4808 8 c43
-36 89 -110 89 -143 0 -19 13 -36 50 -64 28 -21 49 -40 47 -42 -11 -11 -147
78 -194 126 -59 60 -69 83 -54 123 13 34 21 34 62 0z m5500 -30 c93 -46 108
-57 137 -101 36 -56 36 -83 1 -121 -49 -52 -109 1 -109 96 0 48 -42 115 -89
141 -22 13 -66 27 -98 32 l-58 9 56 -3 c44 -2 79 -14 160 -53z m-7974 21 c21
-21 24 -32 19 -62 -10 -67 -83 -96 -125 -50 -27 29 -32 47 -23 83 15 56 86 72
129 29z m3613 1 c13 -33 -2 -58 -48 -79 -50 -24 -124 -90 -163 -144 -18 -26
-45 -56 -58 -67 -33 -26 -74 -73 -83 -93 -5 -14 -7 -13 -7 5 -1 14 23 46 66
90 38 37 79 88 92 113 54 102 93 159 124 179 43 28 65 26 77 -4z m544 -74 l37
-80 -22 -30 c-28 -38 -57 -40 -98 -5 -32 26 -48 76 -37 117 9 36 59 96 72 86
6 -5 28 -45 48 -88z m2586 74 c27 -14 57 -36 66 -50 9 -14 50 -41 90 -61 82
-39 125 -77 155 -136 35 -68 5 -141 -51 -123 -26 8 -77 74 -86 111 -22 89
-116 210 -204 263 -48 29 -30 26 30 -4z m1617 -110 c73 -57 125 -138 121 -189
-4 -50 -43 -85 -77 -67 -27 15 -49 57 -57 112 -12 81 -74 172 -151 224 -29 20
-53 37 -53 40 0 10 172 -85 217 -120z m-6892 94 c62 -28 211 -31 269 -6 54 24
66 21 31 -8 -16 -13 -46 -27 -65 -31 -19 -4 -62 -19 -95 -34 -74 -33 -175 -55
-211 -46 -35 9 -84 44 -84 59 0 7 14 29 31 50 36 43 56 46 124 16z m3639 10
c161 -14 216 -42 216 -113 0 -14 -9 -31 -21 -40 -30 -21 -66 -5 -139 60 -76
68 -81 70 -169 82 -40 6 -76 13 -79 16 -8 9 59 7 192 -5z m1395 -14 c16 -9 24
-71 12 -93 -15 -29 -54 -35 -101 -16 -22 9 -43 14 -46 11 -8 -8 -8 -59 1 -87
6 -20 5 -23 -5 -13 -19 18 -23 103 -7 148 22 63 88 86 146 50z m1241 18 c-8
-3 -24 -10 -35 -15 -20 -9 -20 -9 -1 6 11 9 27 16 35 15 14 0 14 -1 1 -6z
m-8960 -72 c-54 -104 -108 -143 -160 -116 -46 24 -47 36 -7 70 35 30 169 105
188 105 5 0 -4 -27 -21 -59z m2200 50 c0 -4 -28 -12 -62 -15 -58 -7 -65 -11
-127 -70 -62 -60 -98 -86 -118 -86 -15 0 -53 40 -53 55 0 26 51 73 98 90 40
15 128 27 235 33 15 1 27 -2 27 -7z m1136 -6 c10 -8 27 -15 36 -15 10 0 25
-11 33 -24 9 -13 27 -27 39 -30 13 -3 48 -22 77 -42 67 -45 202 -120 211 -117
9 3 142 -157 135 -163 -3 -3 -32 20 -64 51 -84 84 -303 245 -332 245 -7 0 -36
11 -64 23 -29 13 -74 30 -101 37 -42 11 -46 15 -28 21 12 5 22 13 22 19 0 14
13 13 36 -5z m1877 -5 c-8 -8 -121 -43 -178 -56 -41 -9 -181 -80 -204 -103
-21 -21 -81 -44 -81 -31 0 5 9 11 19 15 11 3 37 18 58 32 79 54 171 96 263
120 52 14 99 29 104 34 5 4 13 6 18 2 6 -3 6 -9 1 -13z m2774 -52 c62 -66 93
-125 93 -176 0 -43 -14 -62 -46 -62 -26 0 -58 47 -69 100 -6 32 -43 150 -61
194 -12 30 24 6 83 -56z m1093 50 c77 -39 104 -129 49 -158 -29 -16 -60 7 -99
75 -32 56 -38 60 -102 55 -35 -2 -39 27 -5 34 12 3 31 7 42 9 44 10 73 6 115
-15z m-10632 -14 c64 -13 91 -15 117 -6 56 16 41 -1 -36 -42 -92 -50 -179 -60
-221 -26 -16 12 -28 30 -28 40 0 23 48 62 69 56 9 -2 53 -12 99 -22z m2482 17
c0 -26 -13 -38 -36 -33 -28 5 -29 8 -11 27 13 16 47 20 47 6z m2105 -22 c-13
-59 -45 -117 -85 -153 -50 -45 -72 -46 -87 -5 -19 50 12 102 81 134 30 14 59
32 66 40 21 25 32 17 25 -16z m1049 22 c16 -7 32 -27 45 -57 23 -50 21 -65 -4
-44 -12 10 -15 10 -15 -2 0 -8 5 -19 12 -26 15 -15 3 -15 -25 -1 -22 12 -22
12 -3 -10 l19 -21 -31 11 c-18 6 -35 15 -38 20 -3 5 -10 9 -15 9 -18 0 1 -20
39 -40 31 -16 33 -19 14 -20 -13 0 -40 16 -64 39 -36 33 -41 43 -40 77 2 61
45 87 106 65z m-3588 -32 c-71 -48 -131 -125 -230 -302 -34 -60 -67 -83 -95
-67 -20 10 -26 36 -21 85 7 60 90 150 200 214 41 24 84 52 95 61 18 16 67 37
89 39 5 1 -12 -13 -38 -30z m7650 -40 c8 -13 -83 41 -97 57 -7 9 11 1 40 -17
29 -18 54 -36 57 -40z m326 54 c26 -11 70 -18 110 -18 44 0 61 -3 51 -9 -25
-14 -138 1 -180 23 -47 25 -37 27 19 4z m1907 -15 c14 -25 14 -29 -5 -55 -27
-37 -73 -67 -142 -95 -49 -19 -74 -22 -177 -20 -107 1 -126 4 -172 27 -29 14
-53 27 -53 29 0 2 26 -5 59 -16 57 -19 61 -19 135 -3 70 16 85 24 169 91 83
67 96 74 132 72 31 -2 43 -9 54 -30z m-11638 -30 c-17 -23 -31 -38 -31 -33 0
13 52 86 58 81 2 -3 -10 -24 -27 -48z m1805 5 c-23 -37 -52 -112 -75 -200 -28
-103 -121 -142 -121 -50 0 72 22 110 112 200 95 93 123 110 84 50z m6979 12
c0 -15 -8 -21 -29 -23 -33 -4 -51 10 -42 33 9 25 71 16 71 -10z m-4170 -31
c44 -19 98 -42 120 -50 48 -18 153 -84 159 -101 3 -7 -16 -2 -42 12 -64 33
-189 59 -247 52 -46 -7 -140 9 -162 26 -18 13 -16 27 7 65 26 43 62 42 165 -4z
m2924 15 c71 -24 99 -55 81 -88 -18 -35 -55 -37 -100 -6 -21 15 -41 32 -43 39
-8 19 -90 55 -150 65 -48 8 -44 9 49 10 78 1 114 -4 163 -20z m-3980 0 l56 -1
-70 -15 c-61 -13 -77 -22 -121 -64 -74 -69 -134 -77 -142 -20 -8 53 110 118
192 105 16 -2 54 -4 85 -5z m-3640 -75 l-42 -68 6 -91 c4 -75 2 -96 -14 -127
-26 -50 -56 -59 -86 -24 -48 56 -26 137 64 243 29 35 65 81 79 103 44 66 39
38 -7 -36z m11021 31 c23 -19 54 -38 69 -40 47 -10 129 -58 140 -82 17 -36 13
-67 -10 -97 -32 -41 -62 -34 -109 25 -22 28 -40 58 -40 67 -1 31 -37 99 -71
130 -46 43 -31 41 21 -3z m-8761 11 c6 -7 8 -21 5 -30 -9 -24 -68 -18 -72 8
-7 32 44 49 67 22z m4142 4 c10 -6 19 -21 19 -33 0 -37 -48 -72 -130 -97 -120
-35 -238 -88 -316 -140 -75 -51 -127 -80 -141 -80 -4 0 8 10 27 22 33 20 181
118 345 228 39 26 77 55 85 65 14 17 64 44 83 45 5 0 17 -5 28 -10z m1090 -33
c41 -27 49 -65 20 -91 -20 -18 -22 -18 -66 10 -112 71 -126 75 -197 72 -40 -2
-64 0 -59 5 16 16 74 25 172 26 84 1 100 -2 130 -22z m1347 -9 c15 -15 -3 -48
-27 -48 -18 0 -35 42 -23 55 9 9 38 5 50 -7z m-7788 -24 c-51 -23 -138 -49
-126 -37 6 6 158 61 171 61 6 1 -15 -10 -45 -24z m2755 16 c87 -13 117 -36 33
-26 -72 9 -130 -6 -189 -50 -26 -19 -54 -34 -63 -34 -28 0 -56 20 -56 39 0 23
45 68 73 74 42 8 132 7 202 -3z m1540 -22 c15 -7 24 -17 21 -25 -4 -8 3 -13
17 -14 21 -1 21 -1 -3 -9 -21 -6 -22 -8 -8 -14 9 -4 14 -14 11 -22 -3 -8 0
-14 6 -14 6 0 11 -9 11 -20 0 -11 5 -20 10 -20 6 0 3 -12 -7 -27 l-18 -26 28
17 c28 19 36 11 15 -14 -11 -12 -10 -12 5 -1 24 19 32 7 13 -21 -27 -39 -17
-45 14 -8 37 42 41 18 5 -31 -35 -48 -53 -59 -95 -59 -30 0 -39 5 -48 25 -17
36 -15 86 4 113 14 21 14 22 -10 22 -27 0 -76 50 -76 79 0 31 34 67 77 80 1 1
14 -4 28 -11z m262 -14 c20 -20 24 -31 19 -57 -13 -65 -85 -89 -131 -42 -32
31 -32 65 0 99 32 35 77 35 112 0z m1721 -14 c36 -22 40 -44 15 -72 -19 -21
-43 -22 -103 -4 -54 16 -162 11 -223 -10 -36 -13 -40 -13 -27 0 24 22 153 75
222 90 84 18 78 19 116 -4z m-6509 -6 c2 -2 -7 -4 -22 -4 -14 0 -29 5 -32 10
-6 10 42 4 54 -6z m1459 -12 c4 -28 -24 -40 -45 -19 -21 21 -9 49 19 45 15 -2
24 -11 26 -26z m2588 -47 c60 -30 114 -55 121 -55 7 0 13 -5 13 -10 0 -7 -18
-9 -47 -5 -27 3 -100 7 -164 9 -116 4 -152 14 -164 45 -3 8 1 21 8 28 16 16
83 42 109 43 9 0 65 -25 124 -55z m3910 38 c18 -24 17 -36 -1 -29 -10 3 -15
-1 -15 -11 0 -16 -1 -16 -16 -1 -13 13 -14 19 -2 37 16 25 17 26 34 4z m-8936
-40 c-16 -27 -34 -70 -41 -98 -26 -112 -43 -149 -72 -159 -80 -28 -92 98 -15
154 18 13 60 52 93 87 33 34 61 63 62 63 1 0 -11 -21 -27 -47z m4135 5 c89
-34 121 -55 65 -42 -38 10 -149 9 -247 -1 -61 -7 -63 -6 -75 20 -11 25 -10 29
12 47 22 18 34 19 95 14 41 -4 103 -20 150 -38z m-4246 -61 c-98 -93 -152
-131 -230 -163 -59 -24 -68 -25 -117 -14 -55 12 -112 51 -112 77 0 8 15 30 34
49 36 36 24 36 142 5 56 -15 108 -14 172 3 59 16 79 27 137 80 70 63 53 38
-26 -37z m5373 -13 c94 -86 105 -97 91 -93 -6 2 -38 29 -70 59 -33 30 -77 70
-99 88 -21 19 -29 29 -17 23 11 -6 54 -41 95 -77z m1634 54 c32 -28 35 -36 30
-67 -6 -40 -48 -80 -84 -81 -13 0 -37 13 -53 29 -26 27 -29 34 -23 73 7 42 19
56 59 70 32 10 32 10 71 -24z m-2280 -11 c32 -29 36 -37 30 -64 -18 -80 -102
-109 -150 -52 -30 35 -32 58 -11 99 30 59 79 65 131 17z m2044 23 c0 -22 -64
-81 -101 -92 -35 -10 -43 -9 -67 9 -17 13 -27 30 -27 46 l-1 26 84 0 c47 0 89
4 95 10 14 14 17 14 17 1z m-4159 -47 c5 -15 3 -26 -7 -34 -12 -10 -14 -8 -12
12 3 20 -1 23 -20 21 -26 -4 -42 25 -21 39 17 10 49 -10 60 -38z m1862 -37
c42 -56 41 -61 -5 -21 -51 44 -55 52 -33 52 8 0 26 -14 38 -31z m1712 -12
c-40 -34 -85 -57 -93 -48 -4 4 -1 9 7 12 11 4 11 6 0 14 -10 7 -9 8 6 4 12 -3
37 5 60 18 52 31 57 31 20 0z m-369 -1 c7 -10 18 -18 25 -18 20 0 57 -72 51
-101 -6 -31 -47 -64 -79 -64 -36 0 -59 15 -72 49 -11 25 -10 35 8 70 12 23 26
41 32 41 6 0 7 -4 4 -10 -3 -5 -4 -10 -1 -10 3 0 10 10 17 22 10 18 9 20 -5
15 -16 -6 -22 4 -9 16 10 10 15 9 29 -10z m-828 -20 c-16 -2 -40 -2 -55 0 -16
2 -3 4 27 4 30 0 43 -2 28 -4z m577 -64 c7 -20 -1 -39 -14 -39 -5 0 -20 9 -34
20 -23 18 -25 24 -15 45 10 22 12 23 34 8 13 -8 26 -23 29 -34z m525 -2 c0 -2
-14 -14 -31 -26 -29 -22 -31 -16 -6 17 8 10 37 18 37 9z m-406 -57 c12 -12 -3
-70 -20 -77 -24 -9 -62 6 -69 28 -4 11 -4 32 0 46 5 23 9 24 43 18 20 -3 41
-10 46 -15z m307 0 c23 -13 24 -33 3 -65 -21 -33 -59 -33 -80 0 -19 30 -13 52
18 65 31 12 36 12 59 0z"/>
<path d="M6268 1097 c-51 -47 -68 -80 -68 -132 0 -50 16 -51 41 -3 12 24 32
52 44 63 31 27 59 115 37 115 -4 0 -28 -19 -54 -43z"/>
<path d="M5862 968 c-19 -19 -14 -28 16 -28 27 0 52 15 52 32 0 13 -55 9 -68
-4z"/>
<path d="M7090 360 c0 -4 9 -10 20 -13 11 -3 20 -2 20 3 0 4 -9 10 -20 13 -11
3 -20 2 -20 -3z"/>
</g>
</svg>
